HIERARCHY
ROOT Hips
{
 OFFSET 0.000000 0.000000 0.000000
 CHANNELS 6 Xposition Yposition Zposition Yrotation Xrotation Zrotation
 JOINT Chest
 {
  OFFSET 0.000000 12.953391 -0.028419
  CHANNELS 3 Yrotation Xrotation Zrotation
  JOINT Chest2
  {
   OFFSET 0.000000 10.280254 0.051622
   CHANNELS 3 Yrotation Xrotation Zrotation
   JOINT Chest3
   {
    OFFSET 0.000000 9.287180 0.000000
    CHANNELS 3 Yrotation Xrotation Zrotation
    JOINT Chest4
    {
     OFFSET 0.000000 9.287180 0.000000
     CHANNELS 3 Yrotation Xrotation Zrotation
     JOINT Neck
     {
      OFFSET 0.000000 13.296264 0.000000
      CHANNELS 3 Yrotation Xrotation Zrotation
      JOINT Head
      {
       OFFSET 0.000000 8.959264 0.099003
       CHANNELS 3 Yrotation Xrotation Zrotation
       End Site
       {
        OFFSET 0.000000 17.121337 0.039303
       }
      }
     }
     JOINT RightCollar
     {
      OFFSET -3.193511 7.451388 0.000000
      CHANNELS 3 Yrotation Xrotation Zrotation
      JOINT RightShoulder
      {
       OFFSET -15.792092 0.000000 0.000000
       CHANNELS 3 Yrotation Xrotation Zrotation
       JOINT RightElbow
       {
        OFFSET -31.151839 0.000000 0.000000
        CHANNELS 3 Yrotation Xrotation Zrotation
        JOINT RightWrist
        {
         OFFSET -25.536298 0.000000 0.002321
         CHANNELS 3 Yrotation Xrotation Zrotation
         End Site
         {
          OFFSET -19.133213 0.000000 0.000000
         }
        }
       }
      }
     }
     JOINT LeftCollar
     {
      OFFSET 3.193511 7.451388 0.000000
      CHANNELS 3 Yrotation Xrotation Zrotation
      JOINT LeftShoulder
      {
       OFFSET 15.792092 0.000000 0.000000
       CHANNELS 3 Yrotation Xrotation Zrotation
       JOINT LeftElbow
       {
        OFFSET 31.151839 0.000000 0.000000
        CHANNELS 3 Yrotation Xrotation Zrotation
        JOINT LeftWrist
        {
         OFFSET 25.536298 0.000000 0.002321
         CHANNELS 3 Yrotation Xrotation Zrotation
         End Site
         {
          OFFSET 19.133213 0.000000 0.000000
         }
        }
       }
      }
     }
    }
   }
  }
 }
 JOINT RightHip
 {
  OFFSET -10.745749 0.139252 0.014209
  CHANNELS 3 Yrotation Xrotation Zrotation
  JOINT RightKnee
  {
   OFFSET 0.000000 -43.743899 -0.006071
   CHANNELS 3 Yrotation Xrotation Zrotation
   JOINT RightAnkle
   {
    OFFSET 0.000000 -43.214199 0.089931
    CHANNELS 3 Yrotation Xrotation Zrotation
    JOINT RightToe
    {
     OFFSET 0.000000 -9.699830 19.151588
     CHANNELS 3 Yrotation Xrotation Zrotation
     End Site
     {
      OFFSET 0.000000 -1.292898 4.893873
     }
    }
   }
  }
 }
 JOINT LeftHip
 {
  OFFSET 10.745749 0.139252 0.014209
  CHANNELS 3 Yrotation Xrotation Zrotation
  JOINT LeftKnee
  {
   OFFSET 0.000000 -43.743899 -0.006071
   CHANNELS 3 Yrotation Xrotation Zrotation
   JOINT LeftAnkle
   {
    OFFSET 0.000000 -43.214199 0.089931
    CHANNELS 3 Yrotation Xrotation Zrotation
    JOINT LeftToe
    {
     OFFSET 0.000000 -9.699830 19.151588
     CHANNELS 3 Yrotation Xrotation Zrotation
     End Site
     {
      OFFSET 0.000000 -1.292898 4.893873
     }
    }
   }
  }
 }
}
MOTION
Frames: 8
Frame Time: 0.016667
-193.645043 94.903351 -454.840991 101.231443 -0.921569 2.003088 0.288268 10.584477 -0.904272 0.148263 4.703647 -0.406731 0.148263 4.703647 -0.406731 0.114271 3.527639 -0.306020 0.290132 21.830201 0.765668 0.308907 4.356261 1.303505 5.552370 5.346020 11.257319 9.406385 -11.365979 67.185599 101.028724 20.540676 -8.379605 5.030207 -1.200738 -14.099117 -6.497296 3.928630 -9.381122 -20.823005 1.448366 -73.175888 2.599295 -4.299027 -1.866884 2.332935 4.100214 16.427680 -3.536456 -25.324975 4.959367 -5.526482 11.800525 -2.426603 -11.528222 0.523538 4.059191 0.000000 0.000000 0.000000 3.314173 -7.314772 4.632445 1.955379 28.530927 1.541533 0.234588 -17.938431 -8.052838 -0.000000 0.000000 0.000000
-195.519776 95.216372 -454.456949 101.877894 -0.710876 1.633751 0.505155 10.850434 -0.883153 0.244099 4.821603 -0.402511 0.244018 4.821708 -0.402473 0.186030 3.616196 -0.303576 0.263695 21.979495 0.773054 0.260156 4.634277 1.324761 6.038555 6.056482 11.405995 10.029275 -12.183242 66.995934 102.107509 21.801207 -9.615391 4.878847 -1.724565 -14.294561 -6.929955 4.860043 -9.438629 -22.156596 0.268644 -72.355389 2.670904 -6.660722 -1.635892 2.434831 4.298845 16.528774 -5.497816 -26.218658 6.578023 -4.562849 15.565989 -2.868519 -11.348153 -0.424788 4.226376 -0.000000 -0.000000 0.000000 3.428334 -9.155276 4.718118 2.056411 28.760325 2.004047 -0.529416 -16.506627 -7.870814 0.000000 0.000000 0.000000
-197.262898 95.566110 -453.986913 102.465293 -0.681987 1.262511 0.780492 11.116345 -0.864727 0.365797 4.939342 -0.401177 0.365660 4.939474 -0.401126 0.277231 3.704459 -0.303578 0.274487 22.227840 0.779374 0.280603 5.095525 1.332217 6.488495 6.800984 11.635802 10.499331 -13.096000 66.668080 102.294164 22.607970 -10.337511 4.946990 -2.374342 -14.666191 -7.356075 6.190958 -9.396961 -23.450689 -1.261554 -71.259481 2.243745 -9.824505 -1.435877 2.594212 5.354628 16.619018 -8.013832 -26.905412 8.750653 -2.996387 20.815109 -3.484444 -11.234101 -1.819699 3.607654 0.000000 0.000000 0.000000 4.131346 -10.634843 4.845435 2.036469 28.648068 2.481434 -1.705196 -14.868461 -7.542708 -0.000000 0.000000 -0.000000
-198.874817 95.847059 -453.540914 103.427869 -0.788617 1.047341 0.948167 11.247244 -0.851487 0.440043 4.997035 -0.399642 0.440043 4.997035 -0.399642 0.333098 3.747493 -0.303147 0.260630 22.527464 0.794081 0.253539 5.651519 1.361841 6.753143 7.207460 11.836171 10.264493 -13.467190 66.626155 101.787471 22.796227 -10.068693 5.257246 -3.108320 -15.084787 -7.629841 7.141612 -9.311360 -24.413694 -2.255248 -70.290990 1.233942 -12.102485 -1.192481 2.652487 6.162360 16.725926 -9.981604 -27.180876 10.340089 -1.422568 26.308181 -3.773756 -11.057123 -3.199496 3.213678 0.000000 0.000000 0.000000 5.247605 -11.711405 4.736621 1.001069 28.015207 2.671716 -2.790644 -13.242043 -7.339277 0.000000 0.000000 0.000000
-200.305617 96.014090 -453.171700 104.971655 -1.057807 1.077181 0.899497 11.152497 -0.864699 0.418949 4.954723 -0.404176 0.419097 4.954567 -0.404216 0.317504 3.715554 -0.306415 0.205159 22.902977 0.830023 0.146008 6.349608 1.441500 6.671877 7.044088 11.951022 8.865627 -12.874460 67.206763 101.122063 22.161380 -8.148319 6.037393 -3.988974 -15.674182 -7.682386 7.349512 -9.194528 -24.828366 -2.277431 -69.638789 -0.324220 -12.708505 -1.114353 2.511862 6.336159 16.875339 -10.944993 -27.064827 10.858181 0.400846 31.931511 -3.254046 -10.950056 -4.624153 3.234408 0.000000 0.000000 0.000000 7.318956 -12.224771 4.200715 -2.095780 26.622133 2.301354 -3.621909 -11.709163 -7.317640 0.000000 0.000000 0.000000
-201.605215 96.112331 -452.826522 106.889790 -1.472307 1.249017 0.740148 10.925004 -0.895118 0.348730 4.853886 -0.413476 0.348815 4.853749 -0.413500 0.264797 3.639995 -0.312739 0.127811 23.330041 0.879391 -0.001862 7.144399 1.549593 6.380370 6.555620 12.007889 6.794974 -11.705924 68.059372 99.753886 20.991148 -5.207857 7.118591 -4.914059 -16.269087 -7.609249 7.167630 -9.054953 -24.879186 -1.816112 -69.148838 -2.417749 -12.457170 -1.111875 2.262996 6.270306 17.044421 -11.324407 -26.613688 10.767305 2.615110 37.738941 -1.965738 -10.736409 -6.059684 3.386210 -0.000000 0.000000 -0.000000 9.813031 -12.266107 3.473725 -6.163173 24.696270 1.646164 -4.361144 -10.188070 -7.430536 0.000000 -0.000000 0.000000
-202.923762 96.171662 -452.457166 108.996962 -1.915736 1.437573 0.623551 10.705561 -0.896582 0.296654 4.756821 -0.411130 0.296654 4.756821 -0.411130 0.225569 3.567420 -0.310484 0.018087 23.689036 0.917900 -0.204244 7.812214 1.645116 6.169112 6.085953 12.021363 4.900830 -10.588206 68.676560 96.351027 19.895931 -2.636940 7.875487 -5.633871 -16.295956 -7.526556 6.889649 -8.946532 -24.836483 -1.390938 -68.758341 -5.158186 -12.023441 -0.715501 2.019370 6.029169 17.201275 -11.306996 -25.769512 10.344903 4.457240 42.735195 -0.396232 -9.665209 -6.979529 3.892348 0.000000 0.000000 0.000000 10.958563 -12.221539 2.881084 -8.933601 22.803354 1.181084 -5.008638 -8.655663 -7.765460 0.000000 0.000000 0.000000
-204.324208 96.202028 -452.047233 111.314046 -2.356706 1.591898 0.565970 10.534112 -0.841501 0.269702 4.680583 -0.385235 0.269749 4.680428 -0.385214 0.205187 3.510042 -0.290807 -0.114830 23.907032 0.927233 -0.441559 8.219920 1.693676 6.147726 5.718862 11.984854 3.215098 -9.717038 69.005627 90.470080 18.835483 -0.712236 7.807589 -6.484709 -15.463889 -7.451051 6.553438 -8.893647 -24.783031 -1.118254 -68.485160 -8.615849 -11.600234 0.202625 1.825923 5.532631 17.351274 -10.871691 -24.474551 9.619751 5.429950 46.695234 1.116317 -7.069635 -7.222749 5.083879 -0.033775 0.660685 0.720804 9.758113 -12.300686 2.491318 -9.392078 21.210770 1.120444 -5.510010 -7.001421 -8.318790 0.000000 0.000000 0.000000
